# This file uses centimeters as units for non-parametric coordinates.

g default
v -0.288675 0.500000 0.000000
v -0.288675 -0.500000 -0.000000
v 0.577350 0.000000 0.000000
v -0.288675 0.500000 1.000000
v -0.288675 -0.500000 1.000000
v 0.577350 -0.000000 1.000000
vt 0.421875 0.020934
vt 0.421875 0.291566
vt 0.656250 0.156250
vt 0.375000 0.312500
vt 0.458333 0.312500
vt 0.541667 0.312500
vt 0.625000 0.312500
vt 0.375000 0.687500
vt 0.458333 0.687500
vt 0.541667 0.687500
vt 0.625000 0.687500
vt 0.421875 0.708434
vt 0.421875 0.979066
vt 0.656250 0.843750
vn -1.000000 0.000000 0.000000
vn -1.000000 0.000000 0.000000
vn -1.000000 0.000000 0.000000
vn -1.000000 0.000000 0.000000
vn 0.500000 -0.866025 -0.000000
vn 0.500000 -0.866025 -0.000000
vn 0.500000 -0.866025 -0.000000
vn 0.500000 -0.866025 -0.000000
vn 0.500000 0.866025 0.000000
vn 0.500000 0.866025 0.000000
vn 0.500000 0.866025 0.000000
vn 0.500000 0.866025 0.000000
vn 0.000000 0.000000 -1.000000
vn 0.000000 0.000000 -1.000000
vn 0.000000 0.000000 -1.000000
vn 0.000000 0.000000 1.000000
vn 0.000000 0.000000 1.000000
vn 0.000000 0.000000 1.000000
s 1
g pPrism1
f 1/4/1 2/5/2 4/8/3
f 4/8/3 2/5/2 5/9/4
s 2
f 2/5/5 3/6/6 5/9/7
f 5/9/7 3/6/6 6/10/8
s 3
f 3/6/9 1/7/10 6/10/11
f 6/10/11 1/7/10 4/11/12
s off
f 1/1/13 3/3/14 2/2/15
f 4/13/16 5/12/17 6/14/18
